name C:\Users\u0150099\Documents\master_thesis\3dpredictsim\Results\debug\Fal_s1_mtjc1_sc_cspx10_oy2_MTc2_MTPm_k1_d01_MTJm_nl_MG_exp5_table_d01_PF_Natali2010_ls146_ig21.mot
datacolumns 128
datarows 4
range 0.00000000 0.03028520
endheader
time	pelvis_tilt	pelvis_list	pelvis_rotation	pelvis_tx	pelvis_ty	pelvis_tz	hip_flexion_l	hip_adduction_l	hip_rotation_l	hip_flexion_r	hip_adduction_r	hip_rotation_r	knee_angle_l	knee_angle_r	ankle_angle_l	ankle_angle_r	subtalar_angle_l	subtalar_angle_r	mtj_angle_l	mtj_angle_r	mtp_angle_l	mtp_angle_r	lumbar_extension	lumbar_bending	lumbar_rotation	arm_flex_l	arm_add_l	arm_rot_l	arm_flex_r	arm_add_r	arm_rot_r	elbow_flex_l	elbow_flex_r	pro_sup_l	pro_sup_r	glut_med1_l/activation	glut_med2_l/activation	glut_med3_l/activation	glut_min1_l/activation	glut_min2_l/activation	glut_min3_l/activation	semimem_l/activation	semiten_l/activation	bifemlh_l/activation	bifemsh_l/activation	sar_l/activation	add_long_l/activation	add_brev_l/activation	add_mag1_l/activation	add_mag2_l/activation	add_mag3_l/activation	tfl_l/activation	pect_l/activation	grac_l/activation	glut_max1_l/activation	glut_max2_l/activation	glut_max3_l/activation	iliacus_l/activation	psoas_l/activation	quad_fem_l/activation	gem_l/activation	peri_l/activation	rect_fem_l/activation	vas_med_l/activation	vas_int_l/activation	vas_lat_l/activation	med_gas_l/activation	lat_gas_l/activation	soleus_l/activation	tib_post_l/activation	flex_dig_l/activation	flex_hal_l/activation	tib_ant_l/activation	per_brev_l/activation	per_long_l/activation	per_tert_l/activation	ext_dig_l/activation	ext_hal_l/activation	ercspn_l/activation	intobl_l/activation	extobl_l/activation	glut_med1_r/activation	glut_med2_r/activation	glut_med3_r/activation	glut_min1_r/activation	glut_min2_r/activation	glut_min3_r/activation	semimem_r/activation	semiten_r/activation	bifemlh_r/activation	bifemsh_r/activation	sar_r/activation	add_long_r/activation	add_brev_r/activation	add_mag1_r/activation	add_mag2_r/activation	add_mag3_r/activation	tfl_r/activation	pect_r/activation	grac_r/activation	glut_max1_r/activation	glut_max2_r/activation	glut_max3_r/activation	iliacus_r/activation	psoas_r/activation	quad_fem_r/activation	gem_r/activation	peri_r/activation	rect_fem_r/activation	vas_med_r/activation	vas_int_r/activation	vas_lat_r/activation	med_gas_r/activation	lat_gas_r/activation	soleus_r/activation	tib_post_r/activation	flex_dig_r/activation	flex_hal_r/activation	tib_ant_r/activation	per_brev_r/activation	per_long_r/activation	per_tert_r/activation	ext_dig_r/activation	ext_hal_r/activation	ercspn_r/activation	intobl_r/activation	extobl_r/activation	
          0.00000000	         -2.92934783	         -0.63946539	          1.47551594	          0.00000000	          0.91148367	         -0.00286915	        -13.73801520	          1.86380075	          6.88402014	         29.97034316	          1.70574583	         -5.09422198	        -14.73611593	        -16.32026843	          6.40312348	         10.78525635	         14.80832192	         11.86252912	          2.52787559	          2.80284324	         14.42612923	         -2.28663305	         -4.82655676	          0.57437270	         -1.66406904	          4.16703378	        -13.79194316	         19.38196393	         -0.06757883	        -13.48233083	         12.72286488	         30.83067859	         21.92737050	         86.51662706	         86.51662706	          0.19778552	          0.05000044	          0.05000006	          0.42081799	          0.17356432	          0.05000152	          0.05000048	          0.05000009	          0.05000009	          0.05000012	          0.10880143	          0.05000015	          0.05000009	          0.05000018	          0.05000056	          0.05000027	          0.52829276	          0.05000133	          0.05000019	          0.05000122	          0.05000057	          0.05000032	          0.34461693	          0.74001658	          0.05000005	          0.05000020	          0.05000008	          0.48432169	          0.20471520	          0.20579204	          0.17404771	          0.43258153	          0.55947907	          0.20937355	          0.59519170	          0.52830464	          0.47444214	          0.05000001	          0.05841287	          0.08706813	          0.05000019	          0.05000003	          0.10880559	          0.05000010	          0.05000000	          0.05000001	          0.06824020	          0.05000023	          0.05841246	          0.05000017	          0.05000023	          0.05000108	          0.24745587	          0.06824062	          0.38590769	          0.06824026	          0.05841221	          0.09362139	          0.15657585	          0.12322526	          0.16778919	          0.22699104	          0.05000310	          0.05840974	          0.08114921	          0.05840572	          0.10460969	          0.19726842	          0.05000119	          0.05000047	          0.14406824	          0.05000212	          0.05000239	          0.05000014	          0.05000103	          0.05000095	          0.05000072	          0.05983954	          0.05000057	          0.05000002	          0.22266350	          0.06824035	          0.06824034	          0.40156978	          0.09070438	          0.06411850	          0.19786381	          0.61877870	          0.15456407	          0.06824052	          0.06824058	          0.07953528	
          0.01009507	         -2.93016265	         -0.73500102	          1.73406909	          0.01562377	          0.91007270	         -0.00255304	        -14.45935581	          1.48558362	          7.12056600	         29.84311068	          1.96989425	         -5.15575875	        -14.98682315	        -16.74997907	          5.59928242	         10.31188383	         15.28382499	         12.06196872	          1.55366351	          2.83007377	         16.06235414	         -1.97552185	         -4.67945313	          0.78155408	         -1.75433300	          3.89447116	        -13.76952587	         19.35767596	         -0.57293069	        -13.45596957	         12.04405933	         31.96832275	         21.09985545	         86.51662706	         86.51662706	          0.16930057	          0.05000018	          0.05000007	          0.36021200	          0.14856774	          0.05000063	          0.05001398	          0.05000032	          0.05000022	          0.05282366	          0.09313205	          0.05280014	          0.05971287	          0.05000117	          0.05000376	          0.05000199	          0.51668477	          0.05737588	          0.05000081	          0.05000142	          0.05000094	          0.05000098	          0.29498535	          0.63344012	          0.05000008	          0.05000030	          0.05000072	          0.45754546	          0.19060993	          0.21591314	          0.17679061	          0.40249326	          0.53304761	          0.19708214	          0.50947244	          0.53134584	          0.40611340	          0.05000001	          0.05000032	          0.07452863	          0.05000006	          0.05000003	          0.09313546	          0.05000002	          0.05152497	          0.05846444	          0.05841255	          0.05841258	          0.05000030	          0.05841265	          0.05841263	          0.05841202	          0.21181741	          0.05841271	          0.33854151	          0.05841256	          0.05000031	          0.15179338	          0.17541892	          0.10547926	          0.14365085	          0.21321887	          0.05000019	          0.05000492	          0.06946263	          0.05000080	          0.08954448	          0.21098074	          0.07764381	          0.06683065	          0.44374734	          0.22216938	          0.11946777	          0.05000006	          0.05000010	          0.05000011	          0.05000008	          0.05866218	          0.05788429	          0.05128956	          0.22892222	          0.05841253	          0.05841255	          0.42872654	          0.17154066	          0.06875459	          0.26377485	          0.66065707	          0.19424698	          0.05841255	          0.05841260	          0.06824067	
          0.02019013	         -2.92958409	         -0.84264875	          1.98337977	          0.03152941	          0.90872047	         -0.00221998	        -15.09372194	          1.08401363	          7.31868455	         29.68452702	          2.18994704	         -5.19755692	        -15.37393718	        -17.82329075	          4.75035873	          9.59177780	         15.72681424	         12.24088471	          0.29919670	          2.97049815	         17.87672095	         -1.62427479	         -4.51288964	          1.00060419	         -1.83630005	          3.54804814	        -13.73269090	         19.23417709	         -1.11440279	        -13.45053792	         11.54848240	         33.13444890	         20.30443367	         86.51662706	         86.51662706	          0.14491799	          0.05841276	          0.05841270	          0.30833444	          0.12717114	          0.05841288	          0.05001366	          0.05004246	          0.05841220	          0.05000012	          0.07971938	          0.18480248	          0.18457028	          0.15217696	          0.05841579	          0.06020898	          0.44227322	          0.05000114	          0.06023469	          0.05841364	          0.05841318	          0.05841338	          0.25250168	          0.54221242	          0.05841506	          0.05841447	          0.05841254	          0.39165003	          0.20266812	          0.20267091	          0.17348379	          0.36166117	          0.47840699	          0.16992715	          0.43609841	          0.45482199	          0.34762516	          0.11494289	          0.05000006	          0.06379510	          0.05000005	          0.05000003	          0.07972213	          0.05434397	          0.06732120	          0.05004469	          0.05000002	          0.05000008	          0.13218685	          0.05000011	          0.05000011	          0.05000011	          0.18131156	          0.05000016	          0.28978490	          0.05000005	          0.07972192	          0.12993244	          0.30104110	          0.25417596	          0.12296310	          0.23413332	          0.05841376	          0.07972428	          0.05945878	          0.05000193	          0.11978455	          0.22073377	          0.07971847	          0.07971710	          0.65103185	          0.19017274	          0.10226224	          0.07972118	          0.16509883	          0.16681630	          0.15038022	          0.06824580	          0.07972204	          0.07100524	          0.19595302	          0.05000002	          0.05000004	          0.53783638	          0.20091647	          0.05885260	          0.55993826	          0.72812433	          0.38687027	          0.05000001	          0.05000005	          0.05841271	
          0.03028520	         -2.92859900	         -0.97184605	          2.22652520	          0.04767663	          0.90747855	         -0.00190703	        -15.62802293	          0.66345672	          7.49190959	         29.37889633	          2.34334133	         -5.13327562	        -15.91446449	        -19.01606251	          3.82370657	          8.90864938	         16.13263281	         12.40583483	         -1.11180959	          3.14408575	         19.72508162	         -1.21684440	         -4.32871652	          1.24205335	         -1.91105832	          3.13995884	        -13.68376814	         19.06945271	         -1.68358402	        -13.46704007	         11.22034241	         34.31777374	         19.53458396	         86.51662706	         86.51662706	          0.15817450	          0.05000023	          0.05000013	          0.26392848	          0.10885611	          0.05000044	          0.05000207	          0.05000022	          0.05000015	          0.06564639	          0.06823953	          0.15818743	          0.15798872	          0.13026060	          0.05000316	          0.05153787	          0.51822003	          0.06824107	          0.05155993	          0.05000135	          0.05000076	          0.05000085	          0.21613651	          0.62454190	          0.05000216	          0.05000170	          0.05000006	          0.33524476	          0.17347998	          0.17348236	          0.14849875	          0.31474367	          0.44511923	          0.14545466	          0.37329168	          0.38931879	          0.29756034	          0.29088768	          0.16335657	          0.05841260	          0.43215930	          0.05000012	          0.06824058	          0.09166984	          0.05762563	          0.05000080	          0.31237047	          0.30128506	          0.37473578	          0.37382433	          0.23956094	          0.23839661	          0.16289256	          0.15751777	          0.24805024	          0.10629605	          0.06824070	          0.11121969	          0.25768537	          0.21756975	          0.10525418	          0.28074365	          0.05000112	          0.06824319	          0.21618152	          0.05000027	          0.19845676	          0.27802117	          0.06823753	          0.06823632	          0.55727054	          0.16278431	          0.15139526	          0.06823976	          0.14132137	          0.14279148	          0.12872252	          0.05841707	          0.06824051	          0.06077909	          0.30081575	          0.12931366	          0.07735409	          0.59713341	          0.17198058	          0.11838188	          0.47929621	          0.75622936	          0.47432762	          0.05822489	          0.07972231	          0.05000016	
